<?xml version="1.0" encoding="UTF-8" standalone="no"?>
<svg
   xmlns:dc="http://purl.org/dc/elements/1.1/"
   xmlns:cc="http://creativecommons.org/ns#"
   xmlns:rdf="http://www.w3.org/1999/02/22-rdf-syntax-ns#"
   xmlns:svg="http://www.w3.org/2000/svg"
   xmlns="http://www.w3.org/2000/svg"
   xmlns:sodipodi="http://sodipodi.sourceforge.net/DTD/sodipodi-0.dtd"
   xmlns:inkscape="http://www.inkscape.org/namespaces/inkscape"
   version="1.1"
   id="Capa_1"
   x="0px"
   y="0px"
   width="429.658px"
   height="429.658px"
   viewBox="0 0 429.658 429.658"
   style="enable-background:new 0 0 429.658 429.658;"
   xml:space="preserve"
   sodipodi:docname="arrow-up-white.svg"
   inkscape:version="1.0.1 (3bc2e813f5, 2020-09-07)"><metadata
   id="metadata43"><rdf:RDF><cc:Work
       rdf:about=""><dc:format>image/svg+xml</dc:format><dc:type
         rdf:resource="http://purl.org/dc/dcmitype/StillImage" /><dc:title></dc:title></cc:Work></rdf:RDF></metadata><defs
   id="defs41" /><sodipodi:namedview
   pagecolor="#ffffff"
   bordercolor="#666666"
   borderopacity="1"
   objecttolerance="10"
   gridtolerance="10"
   guidetolerance="10"
   inkscape:pageopacity="0"
   inkscape:pageshadow="2"
   inkscape:window-width="1920"
   inkscape:window-height="1027"
   id="namedview39"
   showgrid="false"
   inkscape:zoom="2.001592"
   inkscape:cx="214.82899"
   inkscape:cy="214.82899"
   inkscape:window-x="-8"
   inkscape:window-y="-8"
   inkscape:window-maximized="1"
   inkscape:current-layer="Capa_1" />
<g
   id="g6"
   style="fill:#c8b7b7">
	<g
   id="g4"
   style="fill:#c8b7b7">
		<path
   d="M235.252,13.406l-0.447-0.998c-3.417-7.622-11.603-12.854-19.677-12.375l-0.3,0.016l-0.302-0.016    C214.194,0.011,213.856,0,213.524,0c-7.706,0-15.386,5.104-18.674,12.413l-0.452,0.998L13.662,176.079    c-6.871,6.183-6.495,12.657-4.971,16.999c2.661,7.559,10.361,13.373,18.313,13.82l1.592,0.297c0.68,0.168,1.356,0.348,2.095,0.427    c23.036,2.381,45.519,2.876,64.472,3.042l5.154,0.048V407.93c0,11.023,7.221,15.152,11.522,16.635l0.967,0.33l0.77,0.671    c3.105,2.717,7.02,4.093,11.644,4.093h179.215c4.626,0,8.541-1.376,11.639-4.093l0.771-0.671l0.965-0.33    c4.307-1.482,11.532-5.611,11.532-16.635V210.706l5.149-0.048c18.961-0.17,41.446-0.666,64.475-3.042    c0.731-0.079,1.407-0.254,2.082-0.422l1.604-0.302c7.952-0.447,15.65-6.262,18.312-13.82c1.528-4.336,1.899-10.811-4.972-16.998    L235.252,13.406z M344.114,173.365c-11.105,0.18-22.216,0.254-33.337,0.254c-5.153,0-9.363,1.607-12.507,4.768    c-3.372,3.4-5.296,8.48-5.266,13.932l0.005,0.65l-0.157,0.629c-0.437,1.767-0.64,3.336-0.64,4.928v194.001H137.458V198.526    c0-1.597-0.201-3.161-0.638-4.928l-0.157-0.629l0.005-0.65c0.031-5.456-1.892-10.537-5.271-13.937    c-3.141-3.161-7.353-4.763-12.507-4.768c-11.124,0-22.224-0.074-33.337-0.254l-13.223-0.218L214.834,44.897l142.503,128.249    L344.114,173.365z"
   id="path2"
   style="fill:#c8b7b7" />
	</g>
</g>
<g
   id="g8">
</g>
<g
   id="g10">
</g>
<g
   id="g12">
</g>
<g
   id="g14">
</g>
<g
   id="g16">
</g>
<g
   id="g18">
</g>
<g
   id="g20">
</g>
<g
   id="g22">
</g>
<g
   id="g24">
</g>
<g
   id="g26">
</g>
<g
   id="g28">
</g>
<g
   id="g30">
</g>
<g
   id="g32">
</g>
<g
   id="g34">
</g>
<g
   id="g36">
</g>
</svg>
